<svg version="1.1" viewBox="0.0 0.0 400.0 100.0" fill="none" stroke="none" stroke-linecap="square" stroke-miterlimit="10" xmlns:xlink="http://www.w3.org/1999/xlink" xmlns="http://www.w3.org/2000/svg"><clipPath id="p.0"><path d="m0 0l400.0 0l0 100.0l-400.0 0l0 -100.0z" clip-rule="nonzero"/></clipPath><g clip-path="url(#p.0)"><path fill="#000000" fill-opacity="0.0" d="m0 0l400.0 0l0 100.0l-400.0 0z" fill-rule="evenodd"/><path fill="#000000" fill-opacity="0.0" d="m0.010672682 1.7203465E-5l399.98096 0l0 67.18811l-399.98096 0z" fill-rule="evenodd"/><path fill="#010101" d="m36.154137 65.65344q-7.625 0 -11.734375 -4.437496q-4.09375 -4.453125 -4.09375 -12.25l0 -32.59375q0 -7.8125 4.09375 -12.25q4.109375 -4.453125 11.734375 -4.453125q7.625 0 11.71875 4.453125q4.109375 4.4375 4.109375 12.25l0 8.21875l-12.59375 0l0 -8.828125q0 -3.828125 -2.96875 -3.828125q-2.96875 0 -2.96875 3.828125l0 33.890625q0 3.75 2.96875 3.75q2.96875 0 2.96875 -3.75l0 -11.078125l12.59375 0l0 10.390625q0 7.796875 -4.109375 12.25q-4.09375 4.437496 -11.71875 4.437496zm47.398148 0q-7.796875 0 -12.03125 -4.531246q-4.234375 -4.53125 -4.234375 -12.515625l0 -31.890627q0 -7.96875 4.234375 -12.5q4.234375 -4.546875 12.03125 -4.546875q7.796875 0 12.03125 4.546875q4.234375 4.53125 4.234375 12.5l0 31.890627q0 7.984375 -4.234375 12.515625q-4.234375 4.531246 -12.03125 4.531246zm0 -12.249996q3.140625 0 3.140625 -4.1875l0 -33.09375q0 -4.1875 -3.140625 -4.1875q-3.140625 0 -3.140625 4.1875l0 33.09375q0 4.1875 3.140625 4.1875zm32.949432 -52.859375l16.968742 0l4.671875 45.0l-0.171875 0l4.6875 -45.0l16.953125 0l0 64.25l-12.59375 0l1.609375 -47.53125l0.1875 0.03125l-5.5625 47.5l-11.0625 0l-5.5624924 -47.515625l0.171875 -0.03125l1.6249924 47.546875l-11.921867 0l0 -64.25zm60.486122 0l15.84375 0q7.890625 0 11.9375 4.359375q4.0625 4.359375 4.0625 12.421875l0 5.984375q0 8.0625 -4.0625 12.421877q-4.046875 4.359375 -11.9375 4.359375l-2.71875 0l0 24.703121l-13.125 0l0 -64.25zm15.84375 27.296875q1.53125 0 2.203125 -0.75q0.671875 -0.75 0.671875 -3.171875l0 -7.203125q0 -2.421875 -0.671875 -3.171875q-0.671875 -0.75 -2.203125 -0.75l-2.71875 0l0 15.046875l2.71875 0zm31.470612 -27.296875l29.59375 0l0 12.25l-16.46875 0l0 12.4375l13.09375 0l0 12.265627l-13.09375 0l0 15.03125l16.46875 0l0 12.265621l-29.59375 0l0 -64.25zm45.321274 0l15.15625 0l8.046875 37.890625l-0.171875 0.046875l-1.625 -37.9375l12.09375 0l0 64.25l-12.984375 0l-10.21875 -45.859375l0.171875 -0.046875l1.625 45.90625l-12.09375 0l0 -64.25zm50.86731 0l16.359375 0q7.890625 0 11.953125 4.359375q4.0625 4.359375 4.0625 12.421875l0 30.687502q0 8.0625 -4.0625 12.421875q-4.0625 4.359371 -11.953125 4.359371l-16.359375 0l0 -64.25zm16.1875 51.984375q1.546875 0 2.296875 -0.828125q0.765625 -0.828125 0.765625 -3.265625l0 -31.531252q0 -2.4375 -0.765625 -3.265625q-0.75 -0.84375 -2.296875 -0.84375l-3.0625 0l0 39.734375l3.0625 0zm32.859985 -51.984375l13.125 0l0 64.25l-13.125 0l0 -64.25z" fill-rule="nonzero"/><path fill="#000000" fill-opacity="0.0" d="m-2.3189239E-5 67.22835l399.98096 0l0 32.77246l-399.98096 0z" fill-rule="evenodd"/><path fill="#010101" d="m89.55337 88.37083l-6.03125 0l0.375 -1.453125l5.234375 0l0.421875 1.453125zm-2.875 -7.796875l-4.375 12.640625l-1.84375 0l6.140625 -16.90625l0.203125 0l6.140625 16.90625l-1.921875 0l-4.34375 -12.640625zm12.578079 12.9375q-0.71875 0 -1.359375 -0.21875q-0.640625 -0.21875 -1.15625 -0.65625q-0.515625 -0.4375 -0.890625 -1.09375q-0.375 -0.671875 -0.578125 -1.609375q-0.203125 -0.9375 -0.203125 -2.109375l0.03125 -6.796875l1.859375 0l0 6.796875q0 1.15625 0.21875 1.953125q0.21875 0.796875 0.59375 1.28125q0.390625 0.484375 0.890625 0.703125q0.515625 0.203125 1.078125 0.203125q0.640625 0 1.21875 -0.25q0.59375 -0.265625 1.046875 -0.765625q0.46875 -0.5 0.734375 -1.296875q0.28125 -0.8125 0.28125 -1.90625l0 -6.71875l1.859375 0l0 10.296875q0 0.484375 0.03125 0.953125q0.046875 0.453125 0.234375 0.9375l-1.84375 0q-0.125 -0.3125 -0.1875 -0.625q-0.046875 -0.3125 -0.0625 -0.625q-0.015625 -0.328125 -0.015625 -0.609375q-0.28125 0.5 -0.6875 0.90625q-0.40625 0.390625 -0.90625 0.671875q-0.484375 0.28125 -1.03125 0.421875q-0.546875 0.15625 -1.15625 0.15625zm15.406204 -0.109375q-1.171875 0 -1.921875 -0.390625q-0.75 -0.40625 -1.15625 -1.25q-0.390625 -0.84375 -0.515625 -2.109375q-0.109375 -1.28125 -0.0625 -3.046875l0.328125 -8.6875l2.0 -0.25l0.265625 -0.015625l0.03125 0.1875q-0.140625 0.1875 -0.234375 0.375q-0.09375 0.171875 -0.140625 0.625l-0.25 3.015625l0.078125 0.484375l-0.1875 4.390625q-0.078125 2.03125 0.109375 3.140625q0.1875 1.109375 0.671875 1.53125q0.484375 0.40625 1.28125 0.40625q0.875 0 1.546875 -0.34375q0.6875 -0.359375 1.4375 -0.890625l0.578125 1.515625q-0.90625 0.671875 -1.859375 1.0q-0.953125 0.3125 -2.0 0.3125l0 0zm-6.109375 -12.375l8.78125 0l0 1.578125l-8.78125 0l0 -1.578125zm13.421829 -5.53125l1.828125 0l0.265625 0l0 0.171875q-0.15625 0.171875 -0.203125 0.359375q-0.03125 0.1875 -0.03125 0.640625l0 6.53125q0.484375 -0.75 1.125 -1.296875q0.65625 -0.546875 1.390625 -0.84375q0.734375 -0.3125 1.484375 -0.3125q1.0937424 0 1.9218674 0.5q0.84375 0.5 1.3125 1.625q0.46875 1.125 0.46875 2.953125l0 7.390625l-1.859375 0l0 -7.328125q0 -1.28125 -0.296875 -2.03125q-0.296875 -0.765625 -0.8125 -1.09375q-0.5 -0.34375 -1.1406174 -0.34375q-0.46875 0 -0.984375 0.171875q-0.5 0.15625 -0.96875 0.46875q-0.46875 0.3125 -0.84375 0.78125q-0.375 0.46875 -0.59375 1.0625q-0.203125 0.578125 -0.203125 1.296875l0 7.015625l-1.859375 0l0 -17.71875zm18.031197 17.9375q-1.640625 0 -2.90625 -0.8125q-1.265625 -0.8125 -1.984375 -2.234375q-0.71875 -1.4375 -0.71875 -3.28125q0 -1.859375 0.71875 -3.28125q0.71875 -1.4375 1.984375 -2.25q1.265625 -0.8125 2.90625 -0.8125q1.65625 0 2.921875 0.8125q1.265625 0.8125 1.984375 2.25q0.71875 1.421875 0.71875 3.28125q0 1.84375 -0.71875 3.28125q-0.71875 1.421875 -1.984375 2.234375q-1.265625 0.8125 -2.921875 0.8125zm0 -1.609375q1.078125 0 1.875 -0.609375q0.796875 -0.609375 1.265625 -1.671875q0.46875 -1.078125 0.46875 -2.453125q0 -1.390625 -0.46875 -2.453125q-0.46875 -1.078125 -1.265625 -1.671875q-0.796875 -0.59375 -1.875 -0.59375q-1.03125 0 -1.84375 0.59375q-0.8125 0.59375 -1.28125 1.671875q-0.46875 1.0625 -0.46875 2.453125q0 1.375 0.46875 2.453125q0.46875 1.0625 1.28125 1.671875q0.8125 0.609375 1.84375 0.609375zm9.843704 -10.796875l2.0 0l-0.078125 3.546875l-0.25 -0.390625q0.171875 -0.828125 0.5625 -1.46875q0.40625 -0.640625 0.96875 -1.078125q0.5625 -0.4375 1.21875 -0.65625q0.671875 -0.234375 1.390625 -0.234375q0.953125 0 1.765625 0.328125q0.8125 0.328125 1.453125 1.0l-0.84375 1.484375l-0.109375 0.25l-0.1875 -0.109375q-0.046875 -0.21875 -0.15625 -0.40625q-0.109375 -0.1875 -0.453125 -0.453125q-0.4375 -0.265625 -0.796875 -0.359375q-0.359375 -0.09375 -0.8125 -0.09375q-0.65625 0 -1.328125 0.265625q-0.671875 0.25 -1.21875 0.78125q-0.546875 0.53125 -0.859375 1.359375q-0.3125 0.828125 -0.3125 1.96875l0 6.484375l-1.953125 0l0 -12.21875zm15.749954 -5.53125l2.140625 0q0 1.59375 -0.03125 2.5625q-0.03125 0.953125 -0.09375 1.609375q-0.0625 0.640625 -0.140625 1.25q-0.078125 0.59375 -0.171875 1.453125l-1.265625 0q-0.09375 -0.859375 -0.171875 -1.453125q-0.078125 -0.609375 -0.140625 -1.25q-0.0625 -0.640625 -0.09375 -1.609375q-0.03125 -0.96875 -0.03125 -2.5625zm14.421829 17.984375q-1.015625 0 -1.9375 -0.21875q-0.90625 -0.203125 -1.71875 -0.625q-0.8125 -0.4375 -1.515625 -1.078125l1.0625 -1.8125l0.171875 -0.234375l0.15625 0.109375q0.046875 0.203125 0.109375 0.4375q0.078125 0.21875 0.375 0.546875q0.546875 0.5625 1.328125 0.921875q0.796875 0.359375 2.03125 0.359375q0.984375 0 1.65625 -0.234375q0.6875 -0.25 1.0625 -0.6875q0.375 -0.4375 0.375 -1.03125q0 -0.390625 -0.171875 -0.703125q-0.15625 -0.3125 -0.515625 -0.578125q-0.359375 -0.265625 -0.953125 -0.53125q-0.578125 -0.265625 -1.4375 -0.53125q-1.375 -0.40625 -2.421875 -0.9375q-1.03125 -0.53125 -1.59375 -1.234375q-0.5625 -0.703125 -0.5625 -1.609375q0 -0.9375 0.5 -1.609375q0.515625 -0.6875 1.515625 -1.0625q1.0 -0.390625 2.453125 -0.390625q0.859375 0 1.546875 0.125q0.703125 0.109375 1.28125 0.359375q0.59375 0.234375 1.078125 0.59375q0.5 0.359375 0.953125 0.828125l-1.09375 1.34375l-0.1875 0.203125l-0.125 -0.125q-0.03125 -0.21875 -0.125 -0.40625q-0.09375 -0.203125 -0.390625 -0.5q-0.609375 -0.484375 -1.390625 -0.734375q-0.765625 -0.25 -1.484375 -0.25q-1.0625 0 -1.84375 0.375q-0.765625 0.359375 -0.765625 1.140625q0 0.40625 0.28125 0.796875q0.28125 0.375 1.015625 0.765625q0.75 0.375 2.140625 0.78125q1.515625 0.484375 2.4375 0.984375q0.921875 0.484375 1.328125 1.125q0.421875 0.640625 0.421875 1.515625q0 1.015625 -0.546875 1.90625q-0.546875 0.875 -1.671875 1.390625q-1.125 0.515625 -2.828125 0.515625l0 0zm26.624908 -0.046875q-1.640625 0 -2.90625 -0.8125q-1.265625 -0.8125 -1.984375 -2.234375q-0.71875 -1.4375 -0.71875 -3.28125q0 -1.859375 0.71875 -3.28125q0.71875 -1.4375 1.984375 -2.25q1.265625 -0.8125 2.90625 -0.8125q1.65625 0 2.921875 0.8125q1.265625 0.8125 1.984375 2.25q0.71875 1.421875 0.71875 3.28125q0 1.84375 -0.71875 3.28125q-0.71875 1.421875 -1.984375 2.234375q-1.265625 0.8125 -2.921875 0.8125zm0 -1.609375q1.078125 0 1.875 -0.609375q0.796875 -0.609375 1.265625 -1.671875q0.46875 -1.078125 0.46875 -2.453125q0 -1.390625 -0.46875 -2.453125q-0.46875 -1.078125 -1.265625 -1.671875q-0.796875 -0.59375 -1.875 -0.59375q-1.03125 0 -1.84375 0.59375q-0.8125 0.59375 -1.28125 1.671875q-0.46875 1.0625 -0.46875 2.453125q0 1.375 0.46875 2.453125q0.46875 1.0625 1.28125 1.671875q0.8125 0.609375 1.84375 0.609375zm9.843704 -10.796875l2.0 0l-0.078125 3.546875l-0.25 -0.390625q0.171875 -0.828125 0.5625 -1.46875q0.40625 -0.640625 0.96875 -1.078125q0.5625 -0.4375 1.21875 -0.65625q0.671875 -0.234375 1.390625 -0.234375q0.953125 0 1.765625 0.328125q0.8125 0.328125 1.453125 1.0l-0.84375 1.484375l-0.109375 0.25l-0.1875 -0.109375q-0.046875 -0.21875 -0.15625 -0.40625q-0.109375 -0.1875 -0.453125 -0.453125q-0.4375 -0.265625 -0.796875 -0.359375q-0.359375 -0.09375 -0.8125 -0.09375q-0.65625 0 -1.328125 0.265625q-0.671875 0.25 -1.21875 0.78125q-0.546875 0.53125 -0.859375 1.359375q-0.3125 0.828125 -0.3125 1.96875l0 6.484375l-1.953125 0l0 -12.21875zm16.73433 16.765625q-1.28125 0 -2.3125 -0.203125q-1.015625 -0.1875 -1.75 -0.578125q-0.734375 -0.390625 -1.125 -0.984375q-0.375 -0.578125 -0.375 -1.375q0 -0.75 0.3125 -1.34375q0.328125 -0.578125 0.84375 -0.953125q0.515625 -0.390625 1.140625 -0.578125l0.796875 0.484375q-0.484375 0.28125 -0.78125 0.578125q-0.296875 0.296875 -0.4375 0.671875q-0.125 0.390625 -0.125 0.921875q0 0.453125 0.265625 0.8125q0.28125 0.375 0.765625 0.609375q0.5 0.234375 1.203125 0.359375q0.703125 0.140625 1.609375 0.140625q1.234375 0 1.984375 -0.25q0.765625 -0.25 1.140625 -0.6875q0.375 -0.4375 0.375 -1.0q0 -0.59375 -0.21875 -0.96875q-0.21875 -0.375 -0.890625 -0.546875q-0.65625 -0.1875 -2.015625 -0.1875q-0.9375 0 -1.71875 -0.078125q-0.765625 -0.09375 -1.375 -0.28125q-0.609375 -0.1875 -1.03125 -0.453125q-0.40625 -0.28125 -0.625 -0.6875q-0.203125 -0.40625 -0.203125 -0.9375q0 -0.6875 0.375 -1.328125q0.390625 -0.640625 1.0625 -1.21875l0.90625 0.71875q-0.265625 0.28125 -0.4375 0.515625q-0.15625 0.21875 -0.21875 0.421875q-0.0625 0.203125 -0.0625 0.4375q0 0.4375 0.328125 0.703125q0.328125 0.265625 1.15625 0.390625q0.828125 0.109375 2.25 0.109375q1.40625 0 2.28125 0.234375q0.890625 0.21875 1.34375 0.65625q0.46875 0.421875 0.65625 0.984375q0.1875 0.546875 0.1875 1.21875q0 0.71875 -0.28125 1.375q-0.28125 0.65625 -0.890625 1.171875q-0.609375 0.515625 -1.625 0.8125q-1.015625 0.3125 -2.484375 0.3125zm-0.546875 -8.703125q-1.3125 0 -2.28125 -0.578125q-0.953125 -0.578125 -1.46875 -1.546875q-0.515625 -0.96875 -0.515625 -2.140625q0 -1.171875 0.515625 -2.125q0.515625 -0.96875 1.46875 -1.546875q0.96875 -0.578125 2.28125 -0.578125q1.328125 0 2.265625 0.578125q0.953125 0.578125 1.46875 1.546875q0.53125 0.953125 0.53125 2.125q0 1.171875 -0.53125 2.140625q-0.515625 0.96875 -1.46875 1.546875q-0.9375 0.578125 -2.265625 0.578125zm0 -1.609375q0.765625 0 1.359375 -0.359375q0.609375 -0.359375 0.953125 -0.96875q0.34375 -0.609375 0.34375 -1.328125q0 -0.75 -0.34375 -1.34375q-0.34375 -0.609375 -0.953125 -0.96875q-0.59375 -0.359375 -1.359375 -0.359375q-0.78125 0 -1.390625 0.359375q-0.59375 0.359375 -0.9375 0.96875q-0.34375 0.59375 -0.34375 1.34375q0 0.71875 0.34375 1.328125q0.34375 0.609375 0.9375 0.96875q0.609375 0.359375 1.390625 0.359375zm3.53125 -4.46875l-0.734375 -0.890625q0.765625 -0.765625 1.609375 -1.125q0.84375 -0.359375 1.984375 -0.28125l0.234375 1.578125q-0.875 -0.09375 -1.65625 0.046875q-0.765625 0.125 -1.4375 0.671875zm9.390579 10.5q-2.078125 0 -3.203125 -0.9375q-1.109375 -0.953125 -1.109375 -2.421875q0 -0.984375 0.46875 -1.765625q0.484375 -0.796875 1.3125 -1.34375q0.84375 -0.546875 1.96875 -0.828125q1.125 -0.296875 2.375 -0.296875q0.453125 0 0.921875 0.015625q0.46875 0 0.984375 0.046875q0.515625 0.03125 1.078125 0.109375l0.046875 1.46875q-0.46875 -0.078125 -0.96875 -0.109375q-0.484375 -0.046875 -0.96875 -0.0625q-0.484375 -0.03125 -0.9375 -0.03125q-0.953125 0 -1.765625 0.15625q-0.796875 0.15625 -1.390625 0.484375q-0.578125 0.3125 -0.90625 0.828125q-0.3125 0.5 -0.3125 1.21875q0 0.5625 0.203125 0.953125q0.203125 0.375 0.546875 0.609375q0.34375 0.21875 0.8125 0.328125q0.46875 0.109375 1.03125 0.109375q1.03125 0 1.84375 -0.328125q0.828125 -0.34375 1.390625 -0.984375q0.578125 -0.640625 0.859375 -1.5625q0.296875 -0.9375 0.296875 -2.140625q0 -1.8125 -0.421875 -2.8125q-0.421875 -1.015625 -1.265625 -1.4375q-0.84375 -0.4375 -2.140625 -0.4375q-0.890625 0 -1.75 0.34375q-0.84375 0.328125 -1.53125 1.015625l-0.9375 -1.234375q0.859375 -0.84375 1.96875 -1.265625q1.125 -0.4375 2.375 -0.4375q1.203125 0 2.1875 0.296875q0.984375 0.296875 1.6875 0.984375q0.71875 0.671875 1.09375 1.828125q0.390625 1.140625 0.390625 2.859375l0 6.484375l-2.078125 0l0 -1.859375q-0.34375 0.65625 -0.84375 1.09375q-0.484375 0.421875 -1.046875 0.65625q-0.5625 0.21875 -1.15625 0.3125q-0.578125 0.09375 -1.109375 0.09375zm9.624954 -0.296875l0 -12.1875l1.859375 0l0 2.171875q0.484375 -0.75 1.125 -1.296875q0.640625 -0.546875 1.40625 -0.84375q0.78125 -0.3125 1.609375 -0.3125q1.015625 0 1.8125 0.5q0.796875 0.5 1.265625 1.625q0.484375 1.125 0.484375 2.953125l0 7.390625l-1.859375 0l0 -7.328125q0 -1.28125 -0.296875 -2.03125q-0.296875 -0.765625 -0.796875 -1.09375q-0.5 -0.34375 -1.140625 -0.34375q-0.625 0 -1.25 0.265625q-0.625 0.265625 -1.15625 0.765625q-0.53125 0.484375 -0.875 1.1875q-0.328125 0.6875 -0.328125 1.5625l0 7.015625l-1.859375 0zm14.078064 0l0 -1.546875l3.109375 0l0 -9.09375l-2.953125 0l0 -1.546875l4.875 0l0 10.640625l2.859375 0l0 1.546875l-7.890625 0zm3.953125 -14.734375q-0.5625 0 -0.96875 -0.40625q-0.390625 -0.40625 -0.390625 -0.953125q0 -0.59375 0.390625 -0.984375q0.390625 -0.40625 0.96875 -0.40625q0.5625 0 0.96875 0.421875q0.421875 0.40625 0.421875 0.96875q0 0.546875 -0.421875 0.953125q-0.40625 0.40625 -0.96875 0.40625zm8.0312195 13.421875l7.546875 -9.1875l-6.984375 0l0 -1.6875l9.46875 0l0 1.3125l-7.421875 9.21875l6.890625 0q0.453125 0 0.640625 -0.046875q0.1875 -0.0625 0.34375 -0.21875l0.1875 0l0 0.265625l0 1.65625l-10.671875 0l0 -1.3125zm19.24997 1.578125q-1.328125 0 -2.421875 -0.40625q-1.09375 -0.421875 -1.890625 -1.21875q-0.78125 -0.796875 -1.203125 -1.984375q-0.421875 -1.1875 -0.421875 -2.703125q0 -1.546875 0.4375 -2.75q0.4375 -1.203125 1.1875 -2.015625q0.765625 -0.8125 1.78125 -1.234375q1.03125 -0.421875 2.1875 -0.421875q1.03125 0 1.9375 0.34375q0.90625 0.34375 1.578125 1.046875q0.671875 0.703125 1.046875 1.796875q0.390625 1.09375 0.390625 2.59375q0 0.203125 -0.015625 0.4375q-0.015625 0.21875 -0.03125 0.4375l-8.671875 0q0.0625 1.171875 0.40625 2.046875q0.34375 0.859375 0.90625 1.40625q0.5625 0.546875 1.296875 0.8125q0.734375 0.265625 1.546875 0.265625q0.640625 0 1.203125 -0.140625q0.5625 -0.15625 1.046875 -0.453125q0.5 -0.3125 0.90625 -0.765625l1.0625 1.046875q-0.5 0.609375 -1.15625 1.03125q-0.65625 0.421875 -1.4375 0.625q-0.765625 0.203125 -1.671875 0.203125zm-4.03125 -7.5625l6.703125 0q0 -0.859375 -0.234375 -1.53125q-0.21875 -0.6875 -0.640625 -1.171875q-0.40625 -0.5 -0.984375 -0.75q-0.578125 -0.265625 -1.296875 -0.265625q-0.640625 0 -1.21875 0.21875q-0.5625 0.21875 -1.046875 0.6875q-0.46875 0.453125 -0.8125 1.15625q-0.328125 0.6875 -0.46875 1.65625zm13.281189 -4.890625l2.0 0l-0.078125 3.546875l-0.25 -0.390625q0.171875 -0.828125 0.5625 -1.46875q0.40625 -0.640625 0.96875 -1.078125q0.5625 -0.4375 1.21875 -0.65625q0.671875 -0.234375 1.390625 -0.234375q0.953125 0 1.765625 0.328125q0.8125 0.328125 1.453125 1.0l-0.84375 1.484375l-0.109375 0.25l-0.1875 -0.109375q-0.046875 -0.21875 -0.15625 -0.40625q-0.109375 -0.1875 -0.453125 -0.453125q-0.4375 -0.265625 -0.796875 -0.359375q-0.359375 -0.09375 -0.8125 -0.09375q-0.65625 0 -1.328125 0.265625q-0.671875 0.25 -1.21875 0.78125q-0.546875 0.53125 -0.859375 1.359375q-0.3125 0.828125 -0.3125 1.96875l0 6.484375l-1.953125 0l0 -12.21875z" fill-rule="nonzero"/></g></svg>